<svg viewBox="0 0 64 64" xmlns="http://www.w3.org/2000/svg">
<path d="M43.795 26H14a1 1 0 00-1 1v16a1 1 0 001 1h29.795c.28 0 .547-.117.736-.323l7.359-8a1 1 0 000-1.354l-7.359-8a1.002 1.002 0 00-.736-.323z" opacity=".1"/>
<path d="M43.795 25H14a1 1 0 00-1 1v16a1 1 0 001 1h29.795c.28 0 .547-.117.736-.323l7.359-8a1 1 0 000-1.354l-7.359-8a1.002 1.002 0 00-.736-.323z" fill="#fff"/>
<g fill="#bdc3c7">
<path d="M27.169 34l-6.438-7H15v14h5.731z"/><path d="M31.981 41l6.439-7-6.439-7h-8.533l6.439 7-6.439 7z"/>
<path d="M43.355 27h-8.657l6.439 7-6.439 7h8.657l6.439-7z"/>
</g>
</svg>