<?xml version="1.0" encoding="utf-8"?>
<!-- Generator: Adobe Illustrator 20.1.0, SVG Export Plug-In . SVG Version: 6.00 Build 0)  -->
<svg version="1.1" id="Layer_2" xmlns="http://www.w3.org/2000/svg" xmlns:xlink="http://www.w3.org/1999/xlink" x="0px" y="0px"
	 viewBox="0 0 100 100" style="enable-background:new 0 0 100 100;" xml:space="preserve">
<style type="text/css">
	.st0{fill:#666666;}
</style>
<path class="st0" d="M85,74.7c-2.5,0-4.6,1.3-5.8,3.3H68.1c-1.2-2-3.3-3.3-5.8-3.3c-2.5,0-4.6,1.3-5.8,3.3H45.5
	c-1.2-2-3.3-3.3-5.8-3.3c-2.5,0-4.6,1.3-5.8,3.3h-7.7c-1.4-0.1-10.6-1.2-10.6-11.7c0-10.5,9-12.1,10.5-12.3H34
	c1.2,1.9,3.3,3.3,5.8,3.3c2.4,0,4.6-1.3,5.8-3.3h10.9c1.2,1.9,3.3,3.3,5.8,3.3c2.4,0,4.6-1.3,5.8-3.3h5.9c3.7,0,17.4-5.1,17.4-20.5
	C91.2,18.1,76.9,15,73,15h-5.2c-1.2-1.9-3.3-3.2-5.7-3.2c-2.4,0-4.5,1.3-5.7,3.2h-11c-1.2-1.9-3.3-3.2-5.7-3.2
	c-2.4,0-4.5,1.3-5.7,3.2H21.2c-1.2-1.9-3.3-3.2-5.7-3.2c-3.7,0-6.7,3-6.7,6.7c0,3.7,3,6.7,6.7,6.7c2.5,0,4.6-1.3,5.8-3.3h12.6
	c1.2,2,3.3,3.3,5.8,3.3s4.6-1.3,5.8-3.3h10.8c1.2,2,3.3,3.3,5.8,3.3s4.6-1.3,5.8-3.3H73c0.1,0,11.2,0.7,11.2,11.5
	c0,10.3-9.1,13.4-10.4,13.5h-5.9c-1.2-1.9-3.3-3.2-5.8-3.2c-2.4,0-4.6,1.3-5.8,3.2H45.5c-1.2-1.9-3.3-3.2-5.8-3.2
	c-2.4,0-4.6,1.3-5.8,3.2h-8l-0.3,0c-5.9,0.6-17,5.3-17,19.3C8.7,80.4,20,85,26,85h8c1.2,1.9,3.3,3.2,5.7,3.2c2.4,0,4.6-1.2,5.7-3.2
	h11.1c1.2,2,3.3,3.2,5.7,3.2c2.4,0,4.5-1.2,5.7-3.2h11.1c1.2,2,3.3,3.2,5.7,3.2c3.7,0,6.7-3,6.7-6.7S88.7,74.7,85,74.7z M39.7,21.8
	c-1.8,0-3.2-1.5-3.2-3.2s1.5-3.2,3.2-3.2s3.2,1.5,3.2,3.2S41.5,21.8,39.7,21.8z M62.1,21.8c-1.8,0-3.2-1.5-3.2-3.2s1.5-3.2,3.2-3.2
	s3.2,1.5,3.2,3.2S63.9,21.8,62.1,21.8z M62.1,47.3c1.8,0,3.2,1.5,3.2,3.2s-1.5,3.2-3.2,3.2s-3.2-1.5-3.2-3.2S60.3,47.3,62.1,47.3z
	 M39.7,47.3c1.8,0,3.2,1.5,3.2,3.2s-1.5,3.2-3.2,3.2s-3.2-1.5-3.2-3.2S37.9,47.3,39.7,47.3z M39.7,84.7c-1.8,0-3.2-1.5-3.2-3.2
	s1.5-3.2,3.2-3.2s3.2,1.5,3.2,3.2S41.5,84.7,39.7,84.7z M62.4,84.7c-1.8,0-3.2-1.5-3.2-3.2s1.5-3.2,3.2-3.2s3.2,1.5,3.2,3.2
	S64.2,84.7,62.4,84.7z"/>
</svg>
